<svg width="615" height="504" viewBox="0 0 615 504" fill="none" xmlns="http://www.w3.org/2000/svg">
<path d="M398.458 0.019198C399.688 0.019198 400.908 0.019198 402.178 0.029198C412.678 0.239198 421.408 2.1892 430.898 6.5792C431.918 7.0292 432.948 7.4692 434.008 7.9292C443.488 12.5292 452.658 20.4292 457.898 29.5792C459.128 33.2692 459.128 33.2692 460.078 37.1392C460.248 37.7892 460.408 38.4392 460.578 39.0992C462.388 46.2992 463.088 52.7392 463.078 60.1392C463.088 61.1492 463.088 62.1592 463.088 63.1892C463.018 73.0692 462.098 82.7892 460.898 92.5792C470.488 86.3092 479.788 79.6292 489.138 72.9892C497.128 67.3192 505.118 61.6792 513.328 56.3392C515.708 54.7092 517.828 52.9492 520.018 51.0792C525.078 47.2692 530.518 48.1392 536.558 48.9292C539.338 49.4092 542.078 49.9692 544.838 50.5792C545.828 50.7992 546.818 51.0192 547.848 51.2492C569.638 56.3592 590.418 67.1892 603.898 85.5792C616.398 105.849 616.608 132.929 611.438 155.579C605.678 179.819 594.868 202.069 580.898 222.579C580.528 223.289 580.158 223.999 579.778 224.729C576.878 227.579 573.698 227.149 569.848 227.129C569.028 227.139 568.208 227.149 567.358 227.159C564.648 227.189 561.938 227.189 559.228 227.189C557.348 227.209 555.468 227.219 553.588 227.239C548.648 227.289 543.698 227.309 538.748 227.319C533.698 227.339 528.658 227.379 523.608 227.419C513.708 227.499 503.798 227.549 493.898 227.579C496.438 229.979 498.978 232.379 501.518 234.769C502.238 235.439 502.948 236.119 503.678 236.809C507.648 240.539 511.688 244.119 515.898 247.579C518.378 250.129 520.628 252.849 522.898 255.579C523.138 255.859 523.138 255.859 524.388 257.279C542.078 278.659 549.618 313.229 555.898 339.579C555.978 339.909 555.978 339.909 556.378 341.569C557.958 348.229 559.008 354.379 558.768 361.209C558.338 377.309 562.388 385.409 572.988 397.369C575.738 400.559 578.128 403.939 580.518 407.399C581.258 408.429 581.988 409.469 582.748 410.539C583.458 411.539 584.168 412.549 584.898 413.579C585.348 414.189 585.798 414.799 586.258 415.419C589.828 420.289 589.828 420.289 590.518 423.329C589.898 425.579 589.898 425.579 587.758 427.119C584.668 428.699 581.898 429.499 578.508 430.269C577.268 430.549 576.028 430.839 574.748 431.129C574.098 431.279 573.448 431.419 572.778 431.569C570.748 432.019 568.728 432.489 566.698 432.959C560.808 434.309 554.918 435.609 548.978 436.719C535.048 439.309 535.048 439.309 529.998 443.879C520.208 451.799 506.638 455.759 494.928 459.849C493.268 460.449 491.638 461.109 490.018 461.799C475.318 468.019 454.018 470.629 439.028 464.929C433.018 462.349 427.338 459.149 421.648 455.959C421.008 455.599 420.368 455.249 419.708 454.879C411.278 450.189 403.018 445.339 395.098 439.819C391.668 437.419 388.178 435.149 384.648 432.899C383.608 432.229 382.568 431.569 381.508 430.879C375.638 427.139 369.758 423.399 363.878 419.669C341.858 405.669 341.858 405.669 334.338 400.399C333.368 399.719 332.408 399.049 331.418 398.359C329.798 397.219 328.188 396.069 326.598 394.899C325.908 394.419 325.228 393.949 324.518 393.459C323.978 393.059 323.428 392.669 322.868 392.259C320.611 391.483 319.051 390.069 317.026 390.5C312.613 391.438 307.264 396.094 303.398 398.399C301.348 399.589 299.288 400.779 297.238 401.959C296.188 402.569 295.138 403.169 294.058 403.789C289.088 406.599 284.028 409.219 278.958 411.829C272.248 415.289 265.628 418.829 259.078 422.579C256.698 423.929 254.298 425.259 251.898 426.579C251.058 427.059 250.228 427.529 249.368 428.019C240.098 432.579 226.878 432.019 217.078 429.329C210.478 426.859 206.468 423.709 202.898 417.579C202.718 417.289 202.718 417.289 201.808 415.819C199.368 409.839 200.298 401.959 201.838 395.829C204.968 390.899 208.888 386.819 212.898 382.579C218.348 376.639 223.568 370.579 228.638 364.309C230.878 361.599 233.208 358.989 235.578 356.399C239.308 352.309 242.688 348.079 245.898 343.579C244.488 340.149 243.038 338.709 239.868 336.819C239.078 336.339 238.288 335.859 237.468 335.369C236.638 334.879 235.808 334.399 234.958 333.899C234.138 333.399 233.308 332.899 232.458 332.389C226.378 328.739 226.378 328.739 222.898 327.579C220.348 328.689 220.348 328.689 217.298 330.409C216.728 330.729 216.728 330.729 213.888 332.319C212.688 333.009 211.478 333.699 210.268 334.399C209.048 335.089 207.818 335.779 206.588 336.469C199.038 340.739 191.528 345.059 184.098 349.519C180.438 351.719 175.866 354.14 172.026 356C174.326 358.54 177.568 359.649 180.578 361.269C181.388 361.709 182.198 362.139 183.028 362.589C183.648 362.919 184.258 363.249 184.898 363.579C182.648 365.939 180.258 367.879 177.648 369.829C176.058 371.079 174.478 372.329 172.898 373.579C172.288 374.059 171.688 374.539 171.068 375.029C159.818 385.039 153.448 401.789 152.148 416.399C152.048 418.119 151.958 419.849 151.898 421.579C142.798 418.859 129.498 412.619 123.898 404.579C121.078 395.539 126.608 383.449 130.468 375.239C136.568 364.219 144.878 356.069 154.898 348.579C152.598 346.119 150.138 344.279 147.348 342.399C146.448 341.779 145.548 341.169 144.618 340.539C143.658 339.899 142.698 339.249 141.708 338.579C140.728 337.919 139.748 337.249 138.738 336.569C134.148 333.449 129.548 330.349 124.918 327.289C124.178 326.799 123.438 326.299 122.678 325.799C121.308 324.879 119.938 323.979 118.558 323.079C114.118 320.109 114.118 320.109 113.068 317.649C112.898 315.579 112.898 315.579 113.828 313.929C114.328 313.389 114.818 312.849 115.328 312.299C115.868 311.689 116.408 311.079 116.968 310.459C117.268 310.139 117.268 310.139 118.768 308.519C119.978 307.169 121.198 305.819 122.408 304.469C122.998 303.809 123.598 303.149 124.218 302.469C126.448 299.959 128.548 297.379 130.648 294.769C134.308 290.239 138.168 285.929 142.148 281.679C143.898 279.579 143.898 279.579 144.898 276.579C144.228 276.339 143.558 276.089 142.868 275.839C133.658 271.939 123.868 267.159 119.898 257.579C119.398 256.539 118.898 255.499 118.388 254.429C111.978 240.459 106.838 223.109 112.408 207.989C114.008 204.149 115.848 200.439 117.768 196.759C118.858 194.649 119.898 192.529 120.928 190.389C128.268 175.159 136.878 161.179 146.898 147.579C147.588 146.639 148.278 145.709 148.988 144.739C157.168 134.079 171.526 119 182.526 116C182.356 115.65 182.728 116.229 181.908 114.459C173.568 96.4992 165.238 78.5392 156.898 60.5792C150.008 60.4592 143.528 60.8892 136.708 61.8692C125.298 63.4492 125.298 63.4492 121.458 61.0792C119.578 58.0692 119.418 56.0692 119.368 52.5792C120.138 49.6792 121.618 48.4992 123.898 46.5792C126.378 45.8492 126.378 45.8492 129.158 45.5392C130.188 45.4092 131.218 45.2892 132.278 45.1592C133.368 45.0492 134.458 44.9392 135.578 44.8292C136.698 44.7192 137.818 44.5992 138.968 44.4792C142.278 44.1492 145.578 43.8592 148.898 43.5792C149.808 43.4992 150.718 43.4192 151.648 43.3292C153.978 43.1292 156.308 42.9992 158.648 42.8992C159.288 42.8592 159.288 42.8592 162.568 42.6992C166.198 43.6592 166.568 43.9492 168.518 46.9192C169.348 48.4492 170.138 50.0092 170.898 51.5792C171.318 52.4392 171.738 53.2992 172.168 54.1792C173.528 57.0692 174.848 59.9792 176.148 62.8992C177.108 65.0292 178.078 67.1692 179.048 69.3092C179.528 70.3692 180.008 71.4192 180.498 72.5092C182.518 76.9492 184.608 81.3592 186.708 85.7692C190.158 93.0192 193.558 100.279 196.898 107.579C197.498 107.429 198.098 107.279 198.728 107.119C220.218 101.799 220.218 101.799 230.898 102.579C230.798 101.929 230.798 101.929 230.308 98.6592C228.968 89.5392 227.688 80.4292 226.708 71.2692C226.628 70.5092 226.538 69.7592 226.458 68.9792C225.958 64.1492 225.828 59.4292 225.898 54.5792C225.498 54.5892 225.498 54.5892 223.498 54.6192C216.258 54.6792 209.008 54.5792 201.768 54.3292C200.958 54.3192 200.138 54.2992 199.298 54.2892C195.528 54.1292 193.488 54.0092 190.368 51.7492C188.198 48.5492 188.358 46.3592 188.898 42.5792C190.478 40.3792 190.478 40.3792 192.898 38.5792C196.088 38.1592 196.088 38.1592 200.018 38.2692C200.738 38.2892 201.458 38.3092 202.198 38.3292C203.828 38.3692 205.448 38.4292 207.078 38.4892C210.258 38.5892 213.438 38.6392 216.618 38.6792C218.968 38.7292 221.308 38.7792 223.648 38.8292C224.208 38.8392 224.208 38.8392 227.068 38.8692C231.548 39.0092 235.008 39.1692 239.088 41.0692C241.738 44.7592 241.838 48.0692 242.078 52.5192C242.218 54.3292 242.358 56.1292 242.498 57.9392C242.568 58.8692 242.628 59.7992 242.698 60.7592C243.018 65.2892 243.458 69.8092 243.898 74.3292C243.938 74.7692 243.938 74.7692 244.138 76.9592C244.888 84.8592 245.476 92.64 246.526 100.5C247.466 100.53 248.788 100.629 249.758 100.659C265.928 101.279 280.388 105.099 295.438 110.899C301.168 113.099 306.998 114.879 312.898 116.579C313.158 115.729 313.418 114.879 313.678 113.999C314.948 110.419 316.528 107.259 318.318 103.909C318.658 103.279 318.988 102.649 319.338 101.999C320.438 99.9392 321.538 97.8892 322.648 95.8292C323.418 94.3892 324.188 92.9492 324.958 91.5092C326.898 87.8792 328.848 84.2592 330.798 80.6292C331.818 78.7192 332.848 76.8092 333.868 74.8992C340.838 61.8992 347.858 48.9392 354.938 36.0092C357.028 32.1792 359.108 28.3392 361.168 24.4992C361.708 23.4992 362.248 22.4992 362.808 21.4692C363.838 19.5592 364.868 17.6392 365.888 15.7192C367.188 13.3192 368.528 10.9492 369.898 8.5792C370.438 7.6092 370.988 6.6492 371.548 5.6492C378.558 -0.530802 389.628 -0.000802027 398.458 0.019198Z" fill="#F3CD39"/>
<path d="M242.077 52.2917C242.217 54.1017 242.357 55.9017 242.497 57.7117C242.557 58.6417 242.627 59.5717 242.687 60.5317C243.017 65.0617 243.457 69.5817 243.897 74.1017C243.937 74.5417 243.937 74.5417 244.137 76.7317C244.887 84.6317 244.976 92.5717 246.026 100.432C246.496 100.452 247.367 100.372 249.757 100.432C270.417 101.222 288.627 107.702 307.607 115.462C309.707 116.282 311.817 117.002 313.967 117.692C329.497 122.832 344.537 129.532 359.457 136.232C360.067 136.502 360.687 136.782 361.317 137.072C367.917 140.032 374.457 143.062 380.897 146.352C380.897 147.342 380.897 148.332 380.897 149.352C378.677 151.102 376.497 152.632 374.137 154.162C372.677 155.142 371.217 156.122 369.757 157.102C368.967 157.622 368.187 158.142 367.377 158.682C362.987 161.632 358.657 164.682 354.327 167.732C353.497 168.312 352.667 168.892 351.807 169.492C347.157 172.752 342.517 176.042 337.897 179.352C338.497 182.232 339.357 184.412 340.907 186.912C341.327 187.592 341.747 188.282 342.177 188.992C342.647 189.732 343.107 190.472 343.577 191.232C344.057 192.002 344.537 192.772 345.027 193.572C350.327 202.112 355.717 210.602 361.117 219.082C361.627 219.882 362.137 220.682 362.667 221.512C363.897 223.352 363.897 223.352 364.897 224.352C367.407 224.512 369.907 224.612 372.427 224.672C372.807 224.682 372.807 224.682 374.707 224.732C377.127 224.802 379.537 224.862 381.957 224.922C383.587 224.962 385.217 225.002 386.857 225.052C390.867 225.152 394.877 225.252 398.897 225.352C399.067 230.722 398.447 235.512 397.317 240.752C397.157 241.542 396.987 242.342 396.817 243.152C396.467 244.832 396.107 246.512 395.747 248.182C395.217 250.682 394.697 253.192 394.177 255.692C388.857 281.032 380.017 304.572 369.897 328.352C369.227 328.352 368.577 328.352 367.897 328.352C367.507 327.482 367.127 326.602 366.737 325.702C353.357 295.072 353.357 295.072 346.967 280.772C344.667 275.612 342.377 270.452 340.077 265.292C339.577 264.162 339.067 263.022 338.547 261.852C333.297 250.032 328.087 238.192 322.897 226.352C320.267 229.582 318.507 232.952 316.717 236.702C316.417 237.312 316.127 237.922 315.817 238.552C314.877 240.512 313.947 242.462 313.017 244.422C312.397 245.702 311.777 246.992 311.157 248.272C307.067 256.802 303.007 265.362 299.297 274.062C294.337 285.672 288.907 295.392 280.357 304.732C277.827 307.532 275.397 310.422 272.957 313.292C271.957 314.462 270.957 315.622 269.947 316.792C266.807 320.452 263.657 324.122 260.517 327.792C259.567 328.892 258.627 330.002 257.677 331.102C257.227 331.622 256.777 332.152 256.317 332.692C253.847 335.582 251.367 338.462 248.897 341.352C243.737 339.612 239.347 336.662 234.767 333.792C233.157 332.792 231.557 331.782 229.947 330.792C229.237 330.342 228.537 329.902 227.807 329.442C225.897 328.352 225.897 328.352 222.897 327.352C220.347 328.462 220.347 328.462 217.287 330.182C216.727 330.502 216.727 330.502 213.887 332.092C212.677 332.782 211.477 333.472 210.267 334.162C209.037 334.862 207.817 335.552 206.587 336.242C199.037 340.512 191.527 344.832 184.097 349.292C180.437 351.492 175.866 354.14 172.026 356C174.326 358.54 177.516 359.88 180.526 361.5C181.336 361.94 181.696 362.55 182.526 363C183.146 363.33 183.886 363.17 184.526 363.5C182.276 365.86 180.247 367.652 177.637 369.602C176.057 370.852 174.467 372.102 172.897 373.352C172.287 373.832 171.687 374.312 171.067 374.802C159.817 384.812 153.437 401.562 152.137 416.162C152.047 417.892 151.957 419.622 151.897 421.352C142.787 418.632 129.487 412.392 123.897 404.352C121.077 395.312 126.597 383.222 130.467 375.012C136.557 363.992 144.877 355.842 154.897 348.352C152.587 345.892 150.137 344.052 147.347 342.162C146.447 341.552 145.547 340.942 144.617 340.312C143.657 339.672 142.697 339.022 141.707 338.352C140.727 337.692 139.747 337.022 138.737 336.342C134.147 333.222 129.547 330.122 124.917 327.062C124.177 326.572 123.437 326.072 122.677 325.572C121.307 324.652 119.937 323.752 118.557 322.852C114.117 319.882 114.117 319.882 113.067 317.422C112.897 315.352 112.897 315.352 113.827 313.702C114.317 313.162 114.817 312.622 115.317 312.072C115.867 311.462 116.407 310.852 116.967 310.232C117.267 309.912 117.267 309.912 118.767 308.292C119.977 306.942 121.187 305.592 122.397 304.242C122.997 303.582 123.597 302.922 124.217 302.242C126.447 299.732 128.547 297.152 130.637 294.542C134.307 290.012 138.167 285.702 142.137 281.452C143.897 279.352 143.897 279.352 144.897 276.352C144.217 276.112 143.547 275.862 142.857 275.612C133.657 271.712 123.867 266.932 119.897 257.352C119.397 256.312 118.897 255.272 118.387 254.202C111.977 240.232 106.827 222.882 112.407 207.762C114.007 203.922 115.837 200.212 117.767 196.532C118.857 194.422 119.897 192.302 120.927 190.162C128.267 174.932 136.877 160.952 146.897 147.352C147.577 146.412 148.267 145.482 148.977 144.512C157.167 133.852 172.167 120.272 182.897 116.352C182.727 116.002 182.727 116.002 181.907 114.232C152.372 50.6293 176.232 62.3203 196.897 107.352C197.497 107.202 198.097 107.052 198.717 106.892C220.217 101.572 220.217 101.572 230.897 102.352C230.697 101.062 231.726 98.83 231.526 97.5C230.186 88.38 227.687 80.2017 226.707 71.0417C226.617 70.2817 226.537 69.5317 226.447 68.7517C225.957 63.9217 225.817 59.2017 225.897 54.3517C225.097 54.3617 224.307 54.3817 223.497 54.3917C168.223 54.8491 240.394 21.084 242.077 52.2917Z" fill="#F2CD3B"/>
<path d="M463.896 226.582C491.866 224.912 491.866 224.912 498.516 230.462C500.036 232.112 501.496 233.822 502.896 235.582C504.676 237.342 506.466 239.092 508.276 240.832C509.816 242.412 511.356 243.992 512.896 245.582C515.326 248.022 517.756 250.442 520.256 252.812C528.336 260.922 532.516 270.132 536.896 280.582C537.216 281.332 537.526 282.072 537.856 282.842C545.506 301.152 551.296 320.292 555.896 339.582C555.976 339.912 555.976 339.912 556.376 341.572C557.966 348.232 559.006 354.382 558.776 361.212C558.336 377.312 562.386 385.412 572.986 397.372C575.736 400.552 578.136 403.942 580.516 407.392C580.886 407.912 580.886 407.912 582.746 410.542C583.456 411.542 584.166 412.552 584.896 413.582C585.346 414.192 585.796 414.802 586.256 415.422C589.826 420.292 589.826 420.292 590.516 423.332C589.896 425.582 589.896 425.582 587.756 427.122C584.666 428.702 581.896 429.502 578.516 430.262C577.896 430.412 577.896 430.412 574.756 431.132C574.106 431.272 573.456 431.422 572.776 431.572C570.756 432.022 568.726 432.492 566.696 432.952C560.806 434.312 554.916 435.612 548.976 436.712C535.046 439.312 535.046 439.312 529.996 443.882C520.206 451.802 506.646 455.752 494.926 459.852C493.276 460.442 491.646 461.112 490.016 461.802C475.316 468.022 454.016 470.632 439.026 464.932C433.026 462.342 427.346 459.152 421.646 455.962C421.006 455.602 420.366 455.242 419.706 454.882C411.286 450.192 403.036 445.352 395.126 439.832C390.466 436.582 385.636 433.602 380.826 430.592C378.176 428.772 376.066 426.932 373.896 424.582C374.326 424.142 374.746 423.702 375.186 423.242C390.486 406.782 402.386 386.882 413.726 367.562C414.956 365.482 416.196 363.412 417.446 361.332C428.176 343.292 438.076 324.562 445.116 304.752C445.926 302.502 446.776 300.262 447.626 298.022C456.266 274.852 460.946 251.062 463.896 226.582Z" fill="#F3CC39"/>
<path d="M398.458 0.019198C399.688 0.019198 400.908 0.019198 402.178 0.029198C412.678 0.239198 421.408 2.1892 430.898 6.5792C431.918 7.0292 432.948 7.4692 434.008 7.9292C443.488 12.5292 452.658 20.4292 457.898 29.5792C459.128 33.2692 459.128 33.2692 460.078 37.1392C460.248 37.7892 460.408 38.4392 460.578 39.0992C461.938 44.5192 463.028 49.5092 462.998 55.0992C462.988 56.1192 462.988 57.1492 462.988 58.1992C462.978 59.2492 462.968 60.3092 462.958 61.3992C462.958 62.4692 462.948 63.5392 462.948 64.6492C462.928 67.2892 462.918 69.9392 462.898 72.5792C462.526 79 461.213 89.2115 461.026 93.5C449.684 99.8801 438.521 109.26 427.898 116.979C421.915 121.322 416.305 125.962 410.148 129.709C402.528 134.419 394.998 139.279 387.768 144.579C385.024 146.491 382.453 148.905 379.838 147.299C376.578 145.399 373.248 143.739 369.838 142.139C369.118 141.809 368.398 141.469 367.658 141.129C352.458 134.069 336.988 127.499 321.398 121.329C320.678 121.039 319.958 120.759 319.228 120.459C315.848 119.149 313.578 118.579 309.898 118.579C309.898 117.919 309.898 117.259 309.898 116.579C310.888 116.579 311.878 116.579 312.898 116.579C313.158 115.729 313.418 114.879 313.678 113.999C314.948 110.419 316.528 107.259 318.318 103.909C318.658 103.279 318.988 102.649 319.338 101.999C320.438 99.9392 321.538 97.8892 322.648 95.8292C323.418 94.3892 324.188 92.9492 324.958 91.5092C326.898 87.8792 328.848 84.2592 330.798 80.6292C331.818 78.7192 332.848 76.8092 333.868 74.8992C340.838 61.8992 347.858 48.9392 354.938 36.0092C357.028 32.1792 359.108 28.3392 361.168 24.4992C361.708 23.4992 362.248 22.4992 362.808 21.4692C363.838 19.5592 364.868 17.6392 365.888 15.7192C367.188 13.3192 368.528 10.9492 369.898 8.5792C370.438 7.6092 370.988 6.6492 371.548 5.6492C378.558 -0.530802 389.628 -0.000802025 398.458 0.019198Z" fill="#E6AA27"/>
<path d="M463.896 226.582C476.526 225.5 486.026 225.5 494.026 227.5C498.434 228.602 501.486 233.832 502.896 235.582C504.786 237.272 506.686 238.962 508.586 240.642C511.706 243.482 512.796 244.762 513.306 248.982C512.936 255.402 511.726 261.762 510.646 268.082C510.536 268.752 510.416 269.422 510.306 270.112C508.616 280.082 506.616 289.842 503.896 299.582C503.246 302.062 502.606 304.542 501.956 307.022C501.276 309.542 500.586 312.062 499.896 314.582C499.556 315.852 499.206 317.112 498.856 318.422C495.886 329.052 492.036 339.122 487.706 349.272C487.036 350.862 486.366 352.452 485.696 354.042C483.776 358.562 481.836 363.072 479.896 367.582C479.406 368.712 478.926 369.852 478.416 371.022C467.866 395.392 454.756 418.482 439.586 440.272C439.006 441.092 438.436 441.922 437.846 442.772C434.426 447.612 430.326 453.642 426.396 458.082C411.026 454.5 384.125 437.491 372.896 425.582C373.326 425.142 374.746 423.702 375.186 423.242C390.486 406.782 402.386 386.882 413.726 367.562C414.956 365.482 416.196 363.412 417.446 361.332C428.176 343.292 438.076 324.562 445.116 304.752C445.926 302.502 446.776 300.262 447.626 298.022C456.266 274.852 460.946 251.062 463.896 226.582Z" fill="#3B2514"/>
<path d="M198.29 373.038C199.915 374.079 199.915 374.079 201.649 375.212C202.218 375.583 202.797 375.96 203.384 376.342C205.361 377.632 207.329 378.917 209.288 380.197C209.984 380.651 210.671 381.099 211.383 381.564C212.045 381.996 212.706 382.428 213.385 382.871C212.765 382.466 213.988 383.265 213.385 382.871C215.102 384.011 212.775 382.385 213.557 382.983L213.385 382.871C210.895 385.631 213.966 381.892 211.526 384.712C210.436 385.962 209.326 387.202 208.196 388.422C207.666 389.012 207.136 389.602 206.586 390.202C206.116 390.712 205.646 391.222 205.156 391.742C200.776 398.132 200.976 406.192 201.896 413.582C203.806 418.772 206.526 423.092 211.276 426.082C222.126 430.572 236.536 432.202 247.706 427.832C249.796 426.802 251.856 425.712 253.896 424.582C255.746 423.582 257.596 422.582 259.446 421.582C262.476 419.932 265.496 418.282 268.506 416.592C269.436 416.082 270.356 415.562 271.306 415.032C272.146 414.562 272.976 414.092 273.836 413.602C285.4 407.875 299.09 424.97 309.606 428.582C311.896 429.582 311.896 429.582 312.896 431.582C313.446 441.032 313.056 450.352 311.646 459.702C311.536 460.472 311.426 461.242 311.316 462.032C310.406 467.492 308.556 471.732 305.896 476.582C303.474 476.582 296.051 490.114 292.956 492.462C292.376 492.902 291.796 493.342 291.196 493.802C283.296 499.682 275.026 504.612 264.896 503.582C262.286 502.222 259.976 500.662 257.896 498.582C257.896 497.922 257.896 497.262 257.896 496.582C257.006 496.332 256.116 496.072 255.196 495.812C251.806 494.552 249.766 493.152 247.016 490.832C246.596 490.472 246.596 490.472 244.426 488.682C243.586 487.992 242.756 487.292 241.896 486.582C238.346 483.812 234.826 481.142 230.956 478.832C228.896 477.582 228.896 477.582 227.896 475.582C225.836 474.462 225.836 474.462 223.896 473.582C223.896 472.922 223.896 472.262 223.896 471.582C223.336 471.312 222.786 471.042 222.206 470.772C217.206 468.202 212.936 465.112 208.566 461.592C205.556 459.322 202.426 457.262 199.286 455.182C195.486 452.632 191.786 449.952 188.086 447.272C187.696 446.982 187.696 446.982 185.716 445.552C181.256 442.322 176.836 439.042 172.456 435.702C167.126 431.672 161.576 428.102 155.896 424.582C154.906 423.922 153.916 423.262 152.896 422.582C152.236 422.252 151.576 421.922 150.896 421.582C152.886 400.732 159.646 383.362 175.896 369.582C178.506 367.692 181.066 366.132 183.896 364.582C180.106 361.582 176.006 359.102 171.896 356.582C174.026 354.282 164.636 364.642 167.396 364.582C168.186 364.565 168.966 364.547 169.776 364.53C170.626 364.511 171.466 364.493 172.346 364.474C174.146 364.434 175.946 364.395 177.756 364.355C178.686 364.335 179.626 364.314 180.586 364.293C185.346 364.187 179.833 362.196 183.896 364.582C184.646 365.023 185.388 365.458 186.155 365.909C186.863 366.324 187.578 366.745 188.311 367.176C188.984 367.571 189.657 367.966 190.347 368.372C191.58 369.096 192.798 369.808 193.999 370.509C195.588 371.438 195.588 371.438 198.29 373.038Z" fill="#FCF2DC"/>
<path d="M310.896 117.582C315.206 118.162 318.866 119.212 322.876 120.882C324.026 121.362 325.176 121.832 326.366 122.332C327.606 122.852 328.846 123.372 330.086 123.892C331.366 124.432 332.656 124.972 333.936 125.502C365.786 138.852 365.786 138.852 380.896 146.582C380.896 147.572 380.896 148.562 380.896 149.582C378.686 151.332 376.506 152.862 374.146 154.392C372.686 155.372 371.216 156.352 369.756 157.332C368.976 157.852 368.186 158.372 367.386 158.912C362.986 161.862 358.666 164.912 354.336 167.962C353.506 168.542 352.666 169.122 351.816 169.722C347.156 172.982 342.516 176.272 337.896 179.582C338.506 182.462 339.366 184.642 340.906 187.132C341.326 187.822 341.756 188.512 342.186 189.222C342.646 189.962 343.106 190.692 343.586 191.462C344.056 192.232 344.536 193.002 345.026 193.792C350.326 202.342 355.716 210.832 361.126 219.302C361.636 220.102 362.146 220.912 362.676 221.732C363.896 223.582 363.896 223.582 364.896 224.582C367.416 224.742 369.906 224.842 372.436 224.902C372.806 224.912 372.806 224.912 374.716 224.962C377.126 225.022 379.546 225.082 381.956 225.142C383.596 225.192 385.226 225.232 386.856 225.272C390.876 225.382 394.886 225.482 398.896 225.582C399.076 230.952 398.446 235.732 397.326 240.982C397.156 241.772 396.986 242.562 396.816 243.382C396.466 245.062 396.116 246.732 395.756 248.412C395.216 250.912 394.696 253.422 394.176 255.922C389.011 280.522 382.276 299.426 372.526 322.5C372.233 323.194 370.321 331.806 370.026 332.5C369.32 332.5 367.208 326.994 366.736 325.932C353.356 295.302 353.356 295.302 346.976 281.002C344.676 275.842 342.376 270.682 340.086 265.522C339.836 264.952 339.836 264.952 338.556 262.082C333.306 250.262 328.096 238.422 322.896 226.582C320.276 229.812 318.516 233.182 316.716 236.932C316.566 237.232 316.566 237.232 315.826 238.782C314.886 240.732 313.956 242.692 313.016 244.642C312.406 245.932 311.786 247.212 311.166 248.502C307.066 257.032 303.016 265.582 299.306 274.292C294.336 285.902 288.906 295.622 280.366 304.962C277.826 307.762 275.406 310.642 272.956 313.522C271.956 314.682 270.956 315.852 269.956 317.022C266.806 320.682 263.666 324.352 260.516 328.022C259.576 329.122 258.626 330.222 257.686 331.332C257.236 331.852 256.786 332.382 256.326 332.922C253.846 335.802 248.876 340.192 246.396 343.082C245.396 343.082 243.566 339.362 240.896 337.582C242.576 332.592 245.426 328.462 248.276 324.082C254.306 314.652 259.936 305.042 265.396 295.272C266.896 292.582 268.416 289.912 269.936 287.242C277.526 273.742 283.906 259.862 289.896 245.582C290.236 244.782 290.576 243.992 290.916 243.172C293.576 236.892 296.166 230.722 297.376 223.982C297.966 221.242 298.836 218.652 299.716 215.982C302.146 208.182 303.676 200.282 305.136 192.242C305.586 189.782 306.046 187.322 306.516 184.862C308.396 174.752 309.556 164.872 309.896 154.582C309.926 153.822 309.946 153.062 309.976 152.272C310.176 146.542 310.316 140.812 310.456 135.082C310.506 133.372 310.546 131.662 310.586 129.952C310.696 125.832 310.796 121.702 310.896 117.582Z" fill="#3B2615"/>
<path d="M45.8958 273.582C48.5858 275.392 48.5858 275.392 50.8958 277.582C78.1895 300.309 110.489 316.212 139.706 336.272C140.506 336.812 141.306 337.362 142.136 337.922C146.756 341.092 151.346 344.312 155.896 347.582C152.716 350.862 149.406 353.892 145.956 356.892C134.646 367.102 125.986 381.962 124.656 397.382C124.531 402.216 126.526 405.5 123.896 407.582C123.236 409.232 121.896 412.582 121.896 412.582C121.896 412.582 110.686 412.702 104.896 408.582C103.926 407.902 102.956 407.222 101.956 406.522C96.8558 402.102 92.1058 395.832 89.7558 389.522C86.9458 385.092 83.0758 383.942 78.3358 382.022C76.5158 381.252 74.7058 380.472 72.8858 379.702C72.0258 379.332 71.1558 378.972 70.2658 378.592C66.7158 377.072 63.2858 375.342 59.8658 373.552C57.8958 372.582 57.8958 372.582 55.5958 371.662C52.2358 370.322 48.9758 368.802 45.7058 367.272C45.0458 366.962 44.3858 366.652 43.6958 366.332C39.9558 364.582 36.2558 362.772 32.5858 360.892C28.6158 358.882 24.5658 357.232 20.4158 355.622C16.9158 354.182 13.5758 352.472 10.2158 350.732C7.89582 349.582 7.89582 349.582 5.22582 348.872C2.89582 347.582 2.89582 347.582 1.61582 344.672C-4.58257 316.308 8.59155 298.504 26.2058 279.142C31.0058 274.702 39.5758 272.572 45.8958 273.582Z" fill="#FDF2DB"/>
<path d="M145.026 277C162.526 286 204.526 308.522 222.896 327.582C222.166 327.982 221.436 328.382 220.686 328.802C194.956 343.002 194.956 343.002 184.096 349.522C180.436 351.712 175.866 354.14 172.026 356C177.866 362.45 187.785 362.257 177.646 369.832C176.056 371.072 174.476 372.322 172.896 373.582C172.296 374.062 171.686 374.542 171.066 375.032C159.816 385.042 153.446 401.782 152.146 416.392C152.046 418.122 151.956 419.852 151.896 421.582C142.796 418.862 129.496 412.622 123.896 404.582C121.086 395.532 126.606 383.452 130.466 375.242C136.566 364.212 144.876 356.072 154.896 348.582C152.596 346.122 150.146 344.282 147.356 342.392C146.446 341.782 145.546 341.172 144.616 340.542C144.136 340.222 144.136 340.222 141.706 338.582C140.726 337.912 139.746 337.252 138.736 336.562C134.156 333.442 129.546 330.342 124.916 327.292C124.186 326.792 123.446 326.302 122.686 325.792C121.316 324.882 119.936 323.982 118.556 323.082C114.116 320.112 113.026 320 111.026 318C112.52 314.265 116.056 311.417 118.776 308.522C119.986 307.172 121.196 305.822 122.406 304.472C123.006 303.812 123.596 303.152 124.216 302.462C126.446 299.962 128.546 297.382 130.646 294.772C135.466 288.822 139.606 282.42 145.026 277Z" fill="#E5A928"/>
<path d="M547.396 306.582C548.056 306.582 549.049 311.582 548.896 311.082C560.186 347.842 559.186 348.342 558.826 361.462C558.436 377.482 562.416 385.442 572.986 397.372C575.736 400.552 578.136 403.942 580.516 407.392C581.256 408.432 581.986 409.472 582.746 410.542C583.456 411.542 584.166 412.552 584.896 413.582C585.346 414.192 585.796 414.802 586.256 415.422C589.826 420.292 589.826 420.292 590.516 423.332C589.896 425.582 589.896 425.582 587.756 427.122C584.666 428.702 581.896 429.502 578.516 430.262C577.276 430.552 576.026 430.832 574.756 431.132C574.106 431.272 573.456 431.422 572.776 431.572C570.756 432.022 568.726 432.492 566.696 432.952C560.806 434.312 554.916 435.612 548.976 436.712C535.046 439.312 535.046 439.312 529.996 443.882C518.716 453.002 493.896 463.082 480.396 465.082C481.756 462.282 484.746 457.112 486.366 454.452C486.606 454.052 486.606 454.052 487.826 452.032C488.346 451.182 488.866 450.332 489.396 449.462C494.716 440.642 499.826 431.732 504.746 422.682C505.816 420.732 506.916 418.802 508.026 416.872C520.836 394.222 532.456 366.842 538.216 341.462C538.996 338.152 539.936 334.912 540.896 331.642C542.816 325.012 545.916 313.332 547.396 306.582Z" fill="#3C2615"/>
<path d="M153.896 410.582C154.426 410.832 154.946 411.082 155.486 411.332C159.156 413.232 162.616 415.472 166.116 417.662C175.843 423.695 185.54 429.762 195.016 436.272C196.356 437.172 197.686 438.072 199.016 438.972C199.346 439.192 199.346 439.192 201.006 440.312C207.171 444.449 216.683 453.151 222.896 455.252C226.906 457.032 230.346 459.422 233.956 461.892C239.116 465.382 244.276 468.842 249.526 472.192C249.986 472.492 249.986 472.492 252.306 473.972C254.096 475.122 255.896 476.262 257.696 477.392C258.506 477.912 259.316 478.432 260.156 478.962C260.516 479.192 260.516 479.192 262.346 480.352C262.856 480.762 263.366 481.162 263.896 481.582C263.896 482.242 263.896 482.902 263.896 483.582C264.556 483.582 265.216 483.582 265.896 483.582C265.996 482.912 266.096 482.252 266.196 481.562C267.076 477.822 268.486 474.402 270.016 470.892C270.326 470.192 270.636 469.492 270.946 468.762C273.606 462.862 276.876 457.662 280.896 452.582C281.716 452.872 282.546 453.162 283.396 453.462C287.206 454.682 291.006 455.642 294.896 456.582C293.986 462.042 291.966 467.032 290.056 472.202C289.086 475.022 288.386 477.662 287.896 480.582C297.576 475.392 302.346 465.172 305.736 455.122C308.036 447.182 307.876 438.782 307.896 430.582C309.546 430.912 311.196 431.242 312.896 431.582C313.206 441.062 313.076 450.312 311.646 459.702C311.536 460.472 311.426 461.242 311.316 462.032C308.026 481.77 286.709 505.8 264.896 503.582C241.933 491.617 221.363 469.806 199.286 455.182C195.486 452.632 191.786 449.952 188.086 447.272C187.696 446.982 187.696 446.982 185.716 445.552C181.256 442.322 176.836 439.042 172.456 435.702C167.126 431.672 161.576 428.102 155.896 424.582C154.906 423.922 153.916 423.262 152.896 422.582C152.236 422.252 151.576 421.922 150.896 421.582C151.372 417.775 153.896 398.321 153.896 410.582Z" fill="#F1DCB8"/>
<path d="M161.896 349.582C164.336 350.922 166.506 352.252 168.776 353.832C169.986 354.652 171.206 355.462 172.426 356.282C173.016 356.672 173.606 357.072 174.206 357.482C177.646 359.732 181.266 361.672 184.896 363.582C182.646 365.942 180.256 367.882 177.646 369.832C176.056 371.072 174.476 372.322 172.896 373.582C172.296 374.062 171.686 374.542 171.066 375.032C159.816 385.042 153.446 401.782 152.146 416.392C152.046 418.122 151.956 419.852 151.896 421.582C142.796 418.862 129.496 412.622 123.896 404.582C121.086 395.532 126.606 383.452 130.466 375.242C136.246 364.802 148.406 345.962 161.896 349.582Z" fill="#3A2518"/>
<path d="M200.021 38.2692C200.381 38.2792 200.381 38.2792 202.191 38.3292C203.821 38.3692 205.451 38.4292 207.081 38.4892C210.261 38.5892 213.441 38.6392 216.621 38.6792C218.961 38.7292 221.301 38.7792 223.641 38.8292C224.211 38.8392 224.211 38.8392 227.071 38.8692C231.541 39.0092 235.001 39.1692 239.091 41.0692C241.741 44.7592 241.841 48.0692 242.081 52.5192C242.221 54.3292 242.361 56.1392 242.501 57.9492C242.561 58.8792 242.631 59.8092 242.691 60.7692C243.011 65.2592 243.461 69.7292 243.901 74.2092C243.981 75.0792 244.061 75.9592 244.151 76.8592C244.681 82.4992 245.261 88.1392 245.901 93.7692C245.981 94.4892 246.061 95.2192 246.141 95.9692C246.571 99.7692 247.011 103.579 247.471 107.389C247.561 108.179 247.651 108.979 247.751 109.799C247.921 111.299 248.101 112.809 248.291 114.309C249.891 128.149 249.891 128.149 246.771 132.649C243.381 134.929 241.891 135.349 237.901 134.579C234.721 132.179 233.621 130.399 232.901 126.579C232.641 124.269 232.411 121.959 232.211 119.649C232.091 118.259 231.961 116.879 231.841 115.489C231.651 113.329 231.461 111.169 231.271 109.019C230.561 100.799 229.526 93.5 228.526 86C227.856 81.77 227.211 76.0292 226.771 71.7692C226.681 70.9892 226.601 70.2092 226.511 69.3992C225.991 64.4392 225.821 59.5792 225.901 54.5792C225.101 54.5892 224.311 54.6092 223.501 54.6192C216.251 54.6792 209.011 54.5792 201.771 54.3292C200.951 54.3192 200.141 54.2992 199.291 54.2892C195.521 54.1292 193.491 54.0092 190.371 51.7492C188.191 48.5492 188.351 46.3592 188.901 42.5792C192.396 37.0817 194.731 38.1192 200.021 38.2692Z" fill="#3E2818"/>
<path d="M0.0260117 330.5C21.7441 339.981 41.2382 350.454 62.6457 361.332C63.3557 361.682 64.0557 362.042 64.7857 362.402C69.5257 364.812 74.0557 367.452 78.5657 370.262C91.2287 377.433 104.317 383.458 117.586 389.522C118.166 389.782 118.166 389.782 121.096 391.112C123.896 392.582 123.896 392.582 124.896 394.582C124.926 397.122 124.826 399.642 124.736 402.172C124.981 405.861 125.526 406.5 123.896 407.582C123.236 409.232 122.576 410.882 121.896 412.582C114.866 413.092 110.686 412.702 104.896 408.582C103.926 407.902 102.956 407.222 101.956 406.522C96.8557 402.102 92.1057 395.832 89.7557 389.522C86.9457 385.092 83.0757 383.942 78.3357 382.022C58.6428 373.69 25.5013 358 20.526 356C15.5507 354 10.2038 350.399 5.18567 348.622C2.89567 347.582 2.89567 347.582 1.58567 344.582C0.535671 339.972 -0.143988 335.2 0.0260117 330.5Z" fill="#F1DCB8"/>
<path d="M151.65 43.3282C153.98 43.1282 156.31 42.9982 158.65 42.8982C159.29 42.8582 159.29 42.8582 162.57 42.6982C166.2 43.6582 166.57 43.9482 168.52 46.9182C169.35 48.4482 170.14 50.0082 170.9 51.5782C171.31 52.4382 171.73 53.2982 172.17 54.1782C173.53 57.0682 174.84 59.9782 176.15 62.8982C177.11 65.0282 178.08 67.1682 179.04 69.3082C179.52 70.3582 180 71.4182 180.49 72.5082C182.53 76.9782 184.65 81.4082 186.77 85.8282C195.9 104.978 197.765 105.976 197.396 107.988C197.026 110 186.675 117.383 182.526 116C181.026 115.5 180.25 111.018 178.83 107.988C178.27 106.798 177.7 105.618 177.12 104.398C176.53 103.108 175.93 101.808 175.33 100.518C174.72 99.2082 174.1 97.8982 173.48 96.5882C171.6 92.5982 169.75 88.5882 167.9 84.5782C167.32 83.3382 166.75 82.0982 166.17 80.8582C163.05 74.1082 159.96 67.3582 156.9 60.5782C150.01 60.4582 143.53 60.8882 136.71 61.8682C125.3 63.4482 125.3 63.4482 121.46 61.0782C119.58 58.0682 119.42 56.0682 119.36 52.5782C120.14 49.6782 121.62 48.5082 123.9 46.5782C126.37 45.8482 126.37 45.8482 129.16 45.5382C130.19 45.4082 131.22 45.2882 132.28 45.1582C132.82 45.1082 132.82 45.1082 135.58 44.8282C136.7 44.7182 137.82 44.5982 138.96 44.4782C143.19 44.0582 147.42 43.7182 151.65 43.3282Z" fill="#3E2819"/>
<path d="M307.896 430.582C308.726 430.742 308.726 430.742 312.896 431.582C313.206 441.062 313.076 450.312 311.646 459.702C311.536 460.472 311.426 461.242 311.316 462.032C310.406 467.492 308.556 471.732 305.896 476.582C303.026 482.5 296.707 489.617 292.956 492.462C292.376 492.902 291.796 493.342 291.196 493.802C282.946 499.942 275.326 503.972 264.896 503.582C263.166 501.852 263.686 499.622 263.646 497.272C263.856 481.112 270.966 465.142 280.896 452.582C281.306 452.722 281.306 452.722 283.396 453.462C287.206 454.682 291.006 455.642 294.896 456.582C293.986 462.042 291.966 467.032 290.056 472.202C289.086 475.022 288.386 477.662 287.896 480.582C297.576 475.392 302.346 465.172 305.736 455.122C308.036 447.182 307.876 438.782 307.896 430.582Z" fill="#F0D9B4"/>
<path d="M229.271 183.707C232.671 186.137 234.141 187.737 235.891 191.587C236.641 197.087 236.861 202.567 234.211 207.587C230.791 212.007 227.341 215.067 221.891 216.587C217.981 217.037 214.841 216.947 211.151 215.517C206.991 211.947 205.231 208.857 204.441 203.517C204.161 197.917 204.251 193.617 207.581 188.957C213.831 182.087 220.431 180.757 229.271 183.707Z" fill="#3B2615"/>
<path d="M398.896 225.582C446.675 225.582 460.896 225 464.026 226.5C464.026 229 463.294 229.52 462.526 239.5C462.48 240.105 462.103 241.436 461.737 241.668C461.254 241.974 460.486 241.647 458.166 241.372C438.437 239.016 418.085 237.881 398.896 232.582C398.896 230.272 398.896 227.962 398.896 225.582Z" fill="#E3AB29"/>
<path d="M307.896 430.582C308.726 430.742 308.726 430.742 312.896 431.582C313.346 442.642 313.216 452.182 308.896 462.582C308.476 463.612 308.046 464.632 307.606 465.692C304.296 472.952 299.306 481.872 291.896 485.582C290.016 485.752 290.016 485.752 287.896 485.772C287.196 485.782 286.496 485.802 285.776 485.812C283.896 485.582 283.896 485.582 281.896 483.582C282.196 477.772 283.626 473.022 285.896 467.702C286.166 467.042 286.446 466.382 286.726 465.702C287.726 463.292 288.736 460.912 289.896 458.582C287.586 457.922 285.276 457.262 282.896 456.582C282.646 457.242 282.396 457.912 282.136 458.592C281.186 460.872 280.196 463.052 279.096 465.262C272.986 477.572 268.546 489.682 267.896 503.582C266.576 503.252 265.256 502.922 263.896 502.582C263.016 484.222 269.536 466.942 280.896 452.582C281.306 452.722 281.306 452.722 283.396 453.462C287.206 454.682 291.006 455.642 294.896 456.582C293.986 462.042 291.966 467.032 290.056 472.202C289.086 475.022 288.386 477.662 287.896 480.582C297.576 475.392 302.346 465.172 305.736 455.122C308.036 447.182 307.876 438.782 307.896 430.582Z" fill="#D3AD7E"/>
<path d="M307.896 430.582C308.866 448.172 306.876 462.752 294.896 476.582C290.606 480.582 290.606 480.582 287.896 480.582C288.356 473.522 290.066 468.032 292.896 461.582C293.566 459.922 294.236 458.252 294.896 456.582C294.486 456.622 294.486 456.622 292.396 456.832C287.886 456.512 284.776 454.792 280.896 452.582C285.234 445.254 298.544 430.582 307.896 430.582Z" fill="#F1DAB6"/>
<path d="M201.896 394.582C207.977 388.5 202.556 395.902 202.896 396.582C202.566 397.572 202.236 398.562 201.896 399.582C201.036 407.932 201.216 414.582 206.126 421.592C211.056 427.132 217.916 429.052 225.126 429.822C235.806 430.432 244.396 429.832 253.896 424.582C255.746 423.582 257.596 422.582 259.446 421.582C262.476 419.932 265.496 418.282 268.506 416.592C269.436 416.082 270.356 415.562 271.306 415.032C272.146 414.562 272.976 414.092 273.836 413.602C275.896 412.582 275.896 412.582 277.896 412.582C277.896 413.242 277.896 413.902 277.896 414.582C278.656 414.702 279.426 414.832 280.206 414.962C282.896 415.582 282.896 415.582 285.896 417.582C285.896 418.242 285.896 418.902 285.896 419.582C285.626 419.672 285.626 419.672 284.246 420.142C271.526 424.512 259.056 429.142 246.836 434.782C237.426 438.652 223.466 437.472 213.896 434.582C206.051 430.985 197.388 419.198 197.666 410.322C198.726 397.752 198.726 397.752 201.896 394.582Z" fill="#F1DCB3"/>
<path d="M89.0261 387.5C94.1565 386.418 114.526 386.582 123.896 396.582C124.096 398.572 124.286 400.552 124.486 402.542C125.613 408.153 124.879 407.085 123.026 410.5C122.686 411.128 122.526 411.5 121.896 412.582C116.526 414 110.686 412.702 104.896 408.582C104.416 408.242 104.416 408.242 101.956 406.522C95.8858 401.252 91.2461 395.2 89.0261 387.5Z" fill="#EAB532"/>
<path d="M373.026 321C373.236 322.18 373.306 322.932 373.516 324.142C374.346 328.022 375.656 331.492 377.236 335.122C380.066 341.652 381.816 346.552 379.896 353.582C379.816 353.902 379.816 353.902 379.416 355.552C377.876 360.722 375.816 362.902 371.146 365.532C370.406 365.922 369.666 366.312 368.896 366.702C368.136 367.132 367.366 367.552 366.576 367.982C365.056 368.822 363.526 369.652 361.986 370.472C360.216 371.412 358.466 372.392 356.716 373.372C352.276 375.882 347.876 377.992 343.146 379.892C337.296 382.462 334.296 386.292 330.896 391.582C330.236 392.572 329.576 393.562 328.896 394.582C324.956 394.022 322.146 392.902 318.896 390.582C318.896 389.922 318.896 389.262 318.896 388.582C329.176 382.622 339.466 376.742 350.016 371.272C352.306 370.072 354.586 368.862 356.866 367.652C358.696 366.682 360.536 365.742 362.386 364.792C367.466 361.952 370.386 359.672 372.646 354.202C374.936 346.052 373.336 340.062 369.896 332.582C369.896 330.321 371.656 322.418 373.026 321Z" fill="#E3AD2D"/>
<path d="M136.896 162.582C140.486 162.832 142.446 163.222 145.276 165.522C147.916 170.502 147.816 175.372 146.276 180.762C143.896 186.212 139.996 190.532 134.896 193.582C131.266 194.472 128.236 194.332 124.896 192.462C123.386 189.622 123.586 187.792 123.896 184.582C125.066 181.592 126.586 178.822 128.146 176.022C128.546 175.282 128.936 174.532 129.346 173.772C131.546 169.722 133.866 166.092 136.896 162.582Z" fill="#3F2918"/>
<path d="M280.896 452.582C281.306 452.722 281.306 452.722 283.396 453.462C287.206 454.682 291.006 455.642 294.896 456.582C294.566 457.902 294.236 459.222 293.896 460.582C293.566 459.922 293.236 459.262 292.896 458.582C291.906 458.912 290.916 459.242 289.896 459.582C287.526 458.662 285.196 457.662 282.896 456.582C282.646 457.242 282.396 457.912 282.136 458.592C281.186 460.872 280.196 463.052 279.096 465.262C272.986 477.572 268.546 489.682 267.896 503.582C266.576 503.252 265.256 502.922 263.896 502.582C263.016 484.222 269.536 466.942 280.896 452.582Z" fill="#DBB88B"/>
<path d="M340.896 377.582C339.356 381.042 337.296 383.722 334.896 386.642C332.766 389.252 330.076 393.282 328.206 396.082C324.396 394.582 319.276 392.82 316.026 390.5C316.026 389.746 322.081 386.482 322.946 385.982C323.786 385.492 324.636 385.002 325.506 384.492C326.396 383.992 327.286 383.482 328.206 382.962C329.086 382.442 329.966 381.922 330.876 381.392C337.506 377.582 337.506 377.582 340.896 377.582Z" fill="#462D1D"/>
<path d="M268.896 487.582C268.566 492.862 268.236 498.142 267.896 503.582C266.576 503.252 265.256 502.922 263.896 502.582C263.786 500.642 263.706 498.712 263.646 496.772C263.596 495.692 263.556 494.612 263.506 493.502C263.896 490.582 263.896 490.582 265.846 488.692C267.896 487.582 267.896 487.582 268.896 487.582Z" fill="#D8B68C"/>
<path d="M253.896 426.582C253.426 427.182 252.946 427.782 252.456 428.392C250.896 430.582 250.896 430.582 249.896 433.582C248.246 433.582 246.596 433.582 244.896 433.582C245.226 432.592 245.556 431.602 245.896 430.582C244.576 430.252 243.256 429.922 241.896 429.582C243.516 428.882 245.146 428.202 246.776 427.522C247.676 427.132 248.576 426.752 249.516 426.362C251.896 425.582 251.896 425.582 253.896 426.582Z" fill="#F1D7A5"/>
<path d="M265.896 480.582C266.886 480.582 267.876 480.582 268.896 480.582C269.226 483.552 269.556 486.522 269.896 489.582C268.906 489.582 267.916 489.582 266.896 489.582C266.566 489.742 266.566 489.742 264.896 490.582C265.226 487.282 265.556 483.982 265.896 480.582Z" fill="#DDBE97"/>
<path d="M126.896 178.582C127.896 181.582 127.896 181.582 127.896 184.582C128.226 185.572 128.556 186.562 128.896 187.582C127.906 187.912 126.916 188.242 125.896 188.582C126.226 189.902 126.556 191.222 126.896 192.582C126.236 192.582 125.576 192.582 124.896 192.582C123.476 189.752 123.656 187.732 123.896 184.582C125.396 181.202 125.396 181.202 126.896 178.582Z" fill="#483322"/>
<path d="M309.896 436.582C310.556 436.912 311.216 437.242 311.896 437.582C311.896 441.542 311.896 445.502 311.896 449.582C311.566 449.742 311.566 449.742 309.896 450.582C308.566 441.172 308.566 441.172 309.896 436.582Z" fill="#CEA978"/>
<path d="M266.896 492.582C267.226 492.582 267.556 492.582 267.896 492.582C267.896 496.212 267.896 499.842 267.896 503.582C266.906 503.582 265.916 503.582 264.896 503.582C264.646 495.962 264.646 495.962 266.896 492.582Z" fill="#CFAB7B"/>
<path d="M152.896 405.582C153.226 405.582 153.556 405.582 153.896 405.582C153.896 407.232 153.896 408.882 153.896 410.582C154.556 410.912 155.216 411.242 155.896 411.582C155.236 412.242 154.576 412.902 153.896 413.582C153.196 414.902 152.526 416.232 151.896 417.582C151.756 409.012 151.756 409.012 152.896 405.582Z" fill="#D5C3A7"/>
</svg>
